<?xml version="1.0" encoding="utf-8"?>
<!-- Generator: Adobe Illustrator 24.3.0, SVG Export Plug-In . SVG Version: 6.00 Build 0)  -->
<svg version="1.1" id="layer" xmlns="http://www.w3.org/2000/svg" xmlns:xlink="http://www.w3.org/1999/xlink" x="0px" y="0px"
	 viewBox="0 0 652 285" style="enable-background:new 0 0 652 285;" xml:space="preserve">
<polygon points="45.9,125.8 45.9,145.8 45.8,145.8 30.3,125.8 21.8,125.8 21.8,158.5 30.3,158.5 30.3,138.5 30.4,138.5 45.9,158.5 
	54.4,158.5 54.4,125.8 "/>
<g>
	<path d="M84,158.5h-7.9V156H76c-1.4,2.2-4.1,3.2-6.7,3.2c-6.6,0-11.2-5.5-11.2-11.9s4.6-11.8,11.1-11.8c2.6,0,5.2,1,6.9,2.9v-2.2
		H84V158.5z M66.3,147.4c0,2.8,1.9,5,5.1,5s5.1-2.2,5.1-5c0-2.7-1.9-5-5.1-5C68.1,142.4,66.3,144.7,66.3,147.4"/>
	<polygon points="97.9,158.5 90,158.5 90,142.8 87.4,142.8 87.4,136.3 90,136.3 90,129.6 97.9,129.6 97.9,136.3 102.3,136.3 
		102.3,142.8 97.9,142.8 	"/>
	<path d="M113.2,127.7c0,2.4-2,4.4-4.4,4.4s-4.4-2-4.4-4.4c0-2.4,2-4.4,4.4-4.4C111.2,123.3,113.2,125.3,113.2,127.7 M112.7,158.5
		h-7.9v-22.2h7.9V158.5z"/>
	<path d="M143,147.4c0,7.5-6.2,11.8-13.4,11.8c-7.1,0-13.4-4.2-13.4-11.8c0-7.6,6.2-11.9,13.4-11.9C136.8,135.5,143,139.8,143,147.4
		 M124.6,147.4c0,2.8,1.9,5,5.1,5s5.1-2.2,5.1-5c0-2.7-1.9-5-5.1-5C126.4,142.4,124.6,144.7,124.6,147.4"/>
	<path d="M154.4,139.1L154.4,139.1c1.9-2.7,4.1-3.6,7.2-3.6c6,0,8.4,3.8,8.4,9.2v13.7h-7.9v-10.8c0-2.1,0.3-5.8-3.6-5.8
		c-3.2,0-4.1,2.4-4.1,5.1v11.5h-7.9v-22.2h7.9L154.4,139.1L154.4,139.1z"/>
	<path d="M199.5,158.5h-7.9V156h-0.1c-1.4,2.2-4.1,3.2-6.7,3.2c-6.6,0-11.2-5.5-11.2-11.9s4.5-11.8,11.1-11.8c2.6,0,5.2,1,6.9,2.9
		v-2.2h7.9V158.5z M181.7,147.4c0,2.8,1.9,5,5.1,5c3.2,0,5.1-2.2,5.1-5c0-2.7-1.9-5-5.1-5C183.6,142.4,181.7,144.7,181.7,147.4"/>
	<rect x="204.7" y="122.6" width="7.9" height="35.9"/>
	<rect x="232.8" y="125.8" width="8.5" height="32.6"/>
	<path d="M254.5,139.1L254.5,139.1c1.9-2.7,4.1-3.6,7.2-3.6c6,0,8.4,3.8,8.4,9.2v13.7h-7.9v-10.8c0-2.1,0.3-5.8-3.6-5.8
		c-3.2,0-4.1,2.4-4.1,5.1v11.5h-7.9v-22.2h7.9V139.1z"/>
	<path d="M289.9,142c-1.2-0.7-2.9-1.1-4.2-1.1c-0.9,0-2.5,0.4-2.5,1.5c0,1.5,2.5,1.7,3.6,2c3.7,0.7,6.4,2.5,6.4,6.6
		c0,5.9-5.3,8.3-10.5,8.3c-3.2,0-6.3-0.9-9-2.6l2.9-5.5c1.6,1.1,4.3,2.3,6.2,2.3c1,0,2.5-0.5,2.5-1.7c0-1.7-2.5-1.8-4.9-2.5
		c-2.5-0.6-4.9-1.9-4.9-5.9c0-5.4,4.9-7.9,9.8-7.9c2.5,0,5,0.4,7.3,1.4L289.9,142z"/>
	<polygon points="306.1,158.5 298.2,158.5 298.2,142.8 295.6,142.8 295.6,136.3 298.2,136.3 298.2,129.6 306.1,129.6 306.1,136.3 
		310.5,136.3 310.5,142.8 306.1,142.8 	"/>
	<path d="M321.4,127.7c0,2.4-2,4.4-4.4,4.4s-4.4-2-4.4-4.4c0-2.4,2-4.4,4.4-4.4C319.4,123.3,321.4,125.3,321.4,127.7 M320.9,158.5
		H313v-22.2h7.9V158.5z"/>
	<polygon points="334.7,158.5 326.8,158.5 326.8,142.8 324.3,142.8 324.3,136.3 326.8,136.3 326.8,129.6 334.7,129.6 334.7,136.3 
		339.2,136.3 339.2,142.8 334.7,142.8 	"/>
	<path d="M349.4,136.3v11.9c0,2.8,0.7,4.8,3.9,4.8c3.2,0,3.9-2,3.9-4.8v-11.9h7.9v13.4c0,7.3-5.1,9.6-11.8,9.6
		c-6.7,0-11.8-2.3-11.8-9.6v-13.4H349.4z"/>
	<polygon points="378.8,158.5 370.9,158.5 370.9,142.8 368.4,142.8 368.4,136.3 370.9,136.3 370.9,129.6 378.8,129.6 378.8,136.3 
		383.3,136.3 383.3,142.8 378.8,142.8 	"/>
	<path d="M408.6,148.7H392c0,3.2,1.7,4.9,4.9,4.9c1.7,0,2.9-0.6,3.8-2h7.6c-1.3,5.2-6.2,7.6-11.3,7.6c-7.4,0-12.8-4.1-12.8-11.8
		c0-7.4,5.1-11.9,12.3-11.9c7.7,0,12.2,4.8,12.2,12.3v0.9H408.6z M401.3,144.1c-0.4-2.1-2.3-3.5-4.5-3.5c-2.3,0-4.2,1.2-4.7,3.5
		H401.3z"/>
	<path d="M452.1,147.4c0,7.5-6.2,11.8-13.4,11.8c-7.1,0-13.4-4.2-13.4-11.8c0-7.6,6.2-11.9,13.4-11.9S452.1,139.8,452.1,147.4
		 M433.7,147.4c0,2.8,1.9,5,5.1,5s5.1-2.2,5.1-5c0-2.7-1.9-5-5.1-5S433.7,144.7,433.7,147.4"/>
	<path d="M464.4,158.5h-7.9v-15.7h-2.8v-6.5h2.8v-2.8c0-3.1,0.1-5.3,2.3-7.8c1.9-2.3,4.8-3.6,7.7-3.6c1.2,0,2.3,0.2,3.4,0.8v6.8
		c-0.9-0.4-1.7-0.7-2.8-0.7c-2,0-2.7,1.2-2.7,3.7v3.6h5.5v6.5h-5.5V158.5z"/>
	<path d="M39.7,186.5c-1.6-1.3-3.6-2.2-5.6-2.2c-1.6,0-3.6,0.9-3.6,2.7c0,1.9,2.3,2.6,3.8,3.1l2.2,0.7c4.6,1.3,8.1,3.6,8.1,8.9
		c0,3.2-0.8,6.6-3.4,8.8c-2.6,2.2-6,3.1-9.3,3.1c-4.1,0-8.1-1.4-11.5-3.7l3.6-6.8c2.1,1.9,4.6,3.4,7.5,3.4c2,0,4.1-1,4.1-3.3
		c0-2.4-3.3-3.2-5.1-3.7c-5.3-1.5-8.8-2.9-8.8-9.2c0-6.6,4.7-11,11.3-11c3.3,0,7.3,1,10.2,2.7L39.7,186.5z"/>
	<polygon points="56.9,210.7 49,210.7 49,195 46.5,195 46.5,188.5 49,188.5 49,181.8 56.9,181.8 56.9,188.5 61.3,188.5 61.3,195 
		56.9,195 	"/>
	<path d="M88.1,210.7h-7.9v-2.5h-0.1c-1.4,2.2-4.1,3.2-6.7,3.2c-6.6,0-11.2-5.5-11.2-11.9s4.6-11.8,11.1-11.8c2.6,0,5.2,0.9,6.9,2.9
		v-2.2h7.9C88.1,188.4,88.1,210.7,88.1,210.7z M70.4,199.6c0,2.8,1.9,5,5.1,5s5.1-2.2,5.1-5c0-2.7-1.9-5-5.1-5
		S70.4,196.9,70.4,199.6"/>
	<path d="M101.2,191.4L101.2,191.4c1.9-2.7,4.1-3.6,7.2-3.6c6,0,8.4,3.8,8.4,9.2v13.7h-7.9v-10.8c0-2.1,0.3-5.8-3.6-5.8
		c-3.2,0-4.1,2.4-4.1,5.1v11.5h-7.9v-22.2h7.9V191.4z"/>
	<path d="M138.7,208.3L138.7,208.3c-1.5,2.2-4.2,3.2-6.8,3.2c-6.6,0-11.2-5.5-11.2-11.9s4.5-11.8,11.1-11.8c2.6,0,5.2,0.9,6.9,2.9
		v-15.9h7.9v35.9h-7.9V208.3z M128.8,199.6c0,2.8,1.9,5,5.1,5c3.2,0,5.1-2.2,5.1-5c0-2.7-1.9-5-5.1-5S128.8,196.9,128.8,199.6"/>
	<path d="M175.8,210.7h-7.9v-2.5h-0.1c-1.4,2.2-4.1,3.2-6.7,3.2c-6.6,0-11.2-5.5-11.2-11.9s4.5-11.8,11.1-11.8
		c2.6,0,5.2,0.9,6.9,2.9v-2.2h7.9V210.7z M158,199.6c0,2.8,1.9,5,5.1,5c3.2,0,5.1-2.2,5.1-5c0-2.7-1.9-5-5.1-5S158,196.9,158,199.6"
		/>
	<path d="M188.9,192.1L188.9,192.1c1.6-2.7,4.2-3.9,7.3-3.9h1.5v7.6c-1.1-0.6-2.1-0.7-3.3-0.7c-4.4,0-5.4,2.9-5.4,6.7v9h-8v-22.2
		h7.9V192.1z"/>
	<path d="M217.3,208.3L217.3,208.3c-1.5,2.2-4.2,3.2-6.8,3.2c-6.6,0-11.2-5.5-11.2-11.9s4.5-11.8,11.1-11.8c2.6,0,5.2,0.9,6.9,2.9
		v-15.9h7.9v35.9h-7.9V208.3z M207.5,199.6c0,2.8,1.9,5,5.1,5s5.1-2.2,5.1-5c0-2.7-1.9-5-5.1-5S207.5,196.9,207.5,199.6"/>
	<path d="M244.8,194.2c-1.2-0.7-2.9-1.1-4.2-1.1c-0.9,0-2.5,0.4-2.5,1.5c0,1.5,2.5,1.7,3.6,2c3.7,0.7,6.4,2.5,6.4,6.6
		c0,5.8-5.3,8.3-10.5,8.3c-3.2,0-6.3-0.9-9-2.6l2.9-5.5c1.6,1.1,4.3,2.3,6.2,2.3c1,0,2.5-0.5,2.5-1.7c0-1.7-2.5-1.8-4.9-2.5
		c-2.5-0.6-4.9-1.9-4.9-5.9c0-5.4,4.9-7.9,9.8-7.9c2.5,0,5,0.4,7.3,1.4L244.8,194.2z"/>
	<path d="M291.5,210.7h-7.9v-2.5h-0.1c-1.4,2.2-4.1,3.2-6.7,3.2c-6.6,0-11.2-5.5-11.2-11.9s4.5-11.8,11.1-11.8
		c2.6,0,5.2,0.9,6.9,2.9v-2.2h7.9L291.5,210.7L291.5,210.7z M273.7,199.6c0,2.8,1.9,5,5.1,5s5.1-2.2,5.1-5c0-2.7-1.9-5-5.1-5
		S273.7,196.9,273.7,199.6"/>
	<path d="M304.6,191.4L304.6,191.4c1.9-2.7,4.1-3.6,7.2-3.6c6,0,8.4,3.8,8.4,9.2v13.7h-7.9v-10.8c0-2.1,0.3-5.8-3.6-5.8
		c-3.2,0-4.1,2.4-4.1,5.1v11.5h-7.9v-22.2h7.9V191.4z"/>
	<path d="M342,208.3L342,208.3c-1.5,2.2-4.2,3.2-6.8,3.2c-6.6,0-11.2-5.5-11.2-11.9s4.6-11.8,11.1-11.8c2.6,0,5.2,0.9,6.9,2.9v-15.9
		h7.9v35.9H342V208.3z M332.2,199.6c0,2.8,1.9,5,5.1,5s5.1-2.2,5.1-5c0-2.7-1.9-5-5.1-5S332.2,196.9,332.2,199.6"/>
	<polygon points="382.9,210.7 374.4,210.7 374.4,185.3 367.4,185.3 367.4,178.1 389.9,178.1 389.9,185.3 382.9,185.3 	"/>
	<path d="M412.4,200.9h-16.6c0,3.2,1.7,4.9,4.9,4.9c1.7,0,2.9-0.5,3.8-2h7.6c-1.3,5.2-6.2,7.6-11.3,7.6c-7.4,0-12.9-4.1-12.9-11.8
		c0-7.4,5.1-11.9,12.3-11.9c7.7,0,12.2,4.8,12.2,12.3V200.9z M405.1,196.4c-0.4-2.1-2.3-3.5-4.5-3.5c-2.3,0-4.2,1.2-4.7,3.5H405.1z"
		/>
	<path d="M432,195.7c-1.2-0.9-2.6-1.6-4.1-1.6c-3,0-5.4,2.3-5.4,5.4c0,3.2,2.3,5.5,5.5,5.5c1.4,0,2.9-0.6,3.9-1.5v6.7
		c-1.7,0.9-3.6,1.3-5.5,1.3c-6.6,0-12.1-4.9-12.1-11.6c0-7.1,5.4-12.1,12.4-12.1c1.8,0,3.6,0.4,5.2,1.3v6.6H432z"/>
	<path d="M444.7,174.8v16.5h0.1c1.8-2.4,4-3.6,7.1-3.6c5.6,0,8.4,3.7,8.4,9.3v13.6h-7.9v-11.4c0-2.6-0.4-5.3-3.6-5.3
		c-3.1,0-4.1,2.7-4.1,5.3v11.4h-7.9v-35.9h7.9V174.8z"/>
	<path d="M473.4,191.4L473.4,191.4c1.9-2.7,4.1-3.6,7.2-3.6c6,0,8.4,3.8,8.4,9.2v13.7h-8v-10.8c0-2.1,0.3-5.8-3.6-5.8
		c-3.2,0-4.1,2.4-4.1,5.1v11.5h-7.9v-22.2h7.9v2.9H473.4z"/>
	<path d="M519.2,199.6c0,7.5-6.2,11.8-13.4,11.8c-7.1,0-13.4-4.2-13.4-11.8c0-7.6,6.2-11.9,13.4-11.9
		C513,187.8,519.2,192.1,519.2,199.6 M500.8,199.6c0,2.8,1.9,5,5.1,5s5.1-2.2,5.1-5c0-2.7-1.9-5-5.1-5S500.8,196.9,500.8,199.6"/>
	<rect x="522.7" y="174.8" width="7.9" height="35.9"/>
	<path d="M560.9,199.6c0,7.5-6.2,11.8-13.4,11.8c-7.1,0-13.4-4.2-13.4-11.8c0-7.6,6.2-11.9,13.4-11.9
		C554.7,187.8,560.9,192.1,560.9,199.6 M542.5,199.6c0,2.8,1.9,5,5.1,5s5.1-2.2,5.1-5c0-2.7-1.9-5-5.1-5S542.5,196.9,542.5,199.6"/>
	<path d="M588.8,208.6c0,9.4-4.7,13.2-12.9,13.2c-5.1,0-12-2.6-12.6-8.5h8.8c0.2,0.8,0.8,1.3,1.5,1.7c0.7,0.3,1.5,0.5,2.2,0.5
		c4.2,0,5.1-2.8,5.1-6.4v-1c-2,2-4.1,3-7.1,3c-6.5,0-10.9-4.9-10.9-11.3c0-6.5,4.6-12,11.4-12c2.6,0,5,0.9,6.5,3.1h0.1v-2.3h7.9
		V208.6z M571.1,199.5c0,2.8,1.9,5,5.1,5c3.2,0,5.1-2.2,5.1-5c0-2.7-1.9-5-5.1-5C573,194.4,571.1,196.7,571.1,199.5"/>
	<polygon points="590.5,188.5 599.6,188.5 605.5,199.9 611.4,188.5 620.3,188.5 602.5,221.8 593.7,221.8 601.3,207.7 	"/>
	<path d="M25.8,251.3c0,2.4-0.1,5.2,1.4,7.3c1.4,2,4.2,3.1,6.6,3.1c2.3,0,4.9-1.1,6.4-2.9c1.7-2.1,1.6-4.9,1.6-7.5v-19.4h3.6v20.4
		c0,3.6-0.3,6.4-2.9,9c-2.3,2.4-5.5,3.7-8.8,3.7c-3.1,0-6.2-1.2-8.4-3.3c-2.9-2.7-3.2-5.7-3.2-9.4v-20.4h3.6v19.4H25.8z"/>
	<path d="M57.7,262.5c0,1.3-1.1,2.5-2.4,2.5c-1.3,0-2.4-1.1-2.4-2.5c0-1.3,1.1-2.4,2.4-2.4C56.7,260.2,57.7,261.2,57.7,262.5"/>
	<path d="M80.1,238.2c-1.3-2.3-2.9-3.6-5.6-3.6c-2.9,0-5.4,2.1-5.4,5.1c0,2.8,2.9,4.1,5.1,5.1l2.2,1c4.2,1.9,7.8,4,7.8,9.2
		c0,5.7-4.6,10.1-10.2,10.1c-5.2,0-9.1-3.4-10.2-8.4l3.6-1c0.5,3.3,3,6.1,6.5,6.1s6.7-2.7,6.7-6.4c0-3.8-3-5.1-6-6.5l-2-0.9
		c-3.8-1.7-7.1-3.7-7.1-8.4c0-5.1,4.3-8.3,9.1-8.3c3.6,0,6.7,1.9,8.5,5.1L80.1,238.2z"/>
	<path d="M95.3,262.5c0,1.3-1.1,2.5-2.4,2.5s-2.4-1.1-2.4-2.5c0-1.3,1.1-2.4,2.4-2.4C94.2,260.2,95.3,261.2,95.3,262.5"/>
	<path d="M116.1,231.8h6.1c4.9,0,8.9,0.6,12.7,3.9c3.7,3.2,5.4,7.6,5.4,12.4s-1.7,9-5.3,12.2c-3.9,3.5-7.8,4.1-12.9,4.1H116v-32.6
		H116.1z M122.4,261.1c4,0,7.3-0.6,10.3-3.4c2.7-2.5,4.1-5.9,4.1-9.6s-1.4-7.3-4.2-9.8c-3-2.6-6.3-3.2-10.1-3.2h-2.6V261h2.5V261.1z
		"/>
	<path d="M147.2,255c0,3.8,2.7,6.8,6.7,6.8c2.9,0,4.9-1.8,6.2-4.2l2.9,1.7c-1.9,3.6-5.2,5.7-9.4,5.7c-6.1,0-10-4.6-10-10.5
		c0-6,3.5-11,9.9-11c6.5,0,10,5.4,9.7,11.5H147.2z M159.6,252.1c-0.5-2.9-2.9-5.3-6-5.3c-3,0-5.8,2.4-6.2,5.3H159.6z"/>
	<path d="M171.2,247L171.2,247c1.8-2.3,4.3-3.5,7.1-3.5c6,0,9.7,5.1,9.7,10.8c0,5.8-3.7,10.7-9.8,10.7c-2.8,0-5.3-1.2-7-3.4h-0.1
		v14.3h-3.5v-31.8h3.5v2.9H171.2z M171.1,254.1c0,4,2.3,7.7,6.7,7.7s6.8-3.6,6.8-7.7s-2.6-7.4-6.8-7.4
		C173.7,246.7,171.1,250.2,171.1,254.1"/>
	<path d="M211.5,264.5H208v-2.8h-0.1c-1.8,2.3-4.2,3.4-7,3.4c-6,0-9.7-5.1-9.7-10.7c0-5.8,3.7-10.8,9.8-10.8c2.8,0,5.3,1.3,7,3.5
		h0.1v-2.9h3.5v20.3H211.5z M194.7,254.1c0,4,2.3,7.7,6.7,7.7c4.5,0,6.8-3.6,6.8-7.7s-2.6-7.4-6.8-7.4
		C197.3,246.7,194.7,250.2,194.7,254.1"/>
	<path d="M221.2,246.3L221.2,246.3c1.3-1.6,2.3-2.8,4.6-2.8c1.2,0,2.1,0.4,3.1,1l-1.6,3.2c-0.7-0.5-1.2-0.9-2.1-0.9
		c-3.8,0-4,4.9-4,7.5v10.2h-3.5v-20.3h3.5V246.3z"/>
	<polygon points="236.9,264.4 233.4,264.4 233.4,247.3 231.3,247.3 231.3,244.1 233.4,244.1 233.4,236.8 236.9,236.8 236.9,244.1 
		240.5,244.1 240.5,247.3 236.9,247.3 	"/>
	<path d="M247.1,246.3L247.1,246.3c1.2-1.7,2.9-2.8,5-2.8c2.4,0,4.5,1.3,5.6,3.4c1.2-2.3,3.6-3.4,6.1-3.4c5.2,0,6.5,4.2,6.5,8.5
		v12.4h-3.5v-11.8c0-2.6-0.2-5.9-3.7-5.9c-4,0-4.4,3.8-4.4,6.9v10.8h-3.5v-11.5c0-2.5-0.3-6.1-3.6-6.1c-4.1,0-4.5,4.1-4.5,7.2v10.5
		h-3.5v-20.3h3.5V246.3z"/>
	<path d="M278.6,255c0,3.8,2.7,6.8,6.7,6.8c2.9,0,4.8-1.8,6.2-4.2l2.9,1.7c-2,3.6-5.2,5.7-9.4,5.7c-6.1,0-10-4.6-10-10.5
		c0-6,3.5-11,9.9-11c6.5,0,10,5.4,9.7,11.5H278.6z M291,252.1c-0.5-2.9-2.9-5.3-6-5.3c-3,0-5.8,2.4-6.2,5.3H291z"/>
	<path d="M302.8,246.6L302.8,246.6c1.5-1.9,3.4-3,5.9-3c5.6,0,6.9,4.1,6.9,8.8v12.1h-3.5V253c0-3.3-0.3-6.2-4.3-6.2
		c-4.8,0-5.1,4.4-5.1,8v9.7h-3.5v-20.3h3.5v2.4H302.8z"/>
	<polygon points="325.8,264.4 322.4,264.4 322.4,247.3 320.3,247.3 320.3,244.1 322.4,244.1 322.4,236.8 325.8,236.8 325.8,244.1 
		329.5,244.1 329.5,247.3 325.8,247.3 	"/>
	<path d="M344.1,254.3c0-6,4.7-10.8,10.7-10.8s10.7,4.8,10.7,10.8s-4.8,10.7-10.7,10.7S344.1,260.3,344.1,254.3 M347.6,254.3
		c0,4.1,2.9,7.5,7.2,7.5c4.3,0,7.2-3.4,7.2-7.5s-2.9-7.5-7.2-7.5C350.5,246.7,347.6,250.2,347.6,254.3"/>
	<path d="M374,264.4h-3.5v-17.1h-1.9v-3.2h1.9V236c0-1.7,0-3.8,0.9-5.3c1.1-1.8,3.2-2.6,5.2-2.6c0.8,0,1.6,0.2,2.5,0.4v3.5
		c-0.8-0.3-1.5-0.5-2.3-0.5c-2.8,0-2.8,2-2.8,5.6v6.9h5.1v3.2H374V264.4z"/>
	<path d="M420.3,239c-2.6-2.7-6.2-4.3-10-4.3c-7.3,0-13.2,6.3-13.2,13.5s5.9,13.5,13.2,13.5c3.7,0,7.3-1.7,9.9-4.3v4.5
		c-2.8,2-6.3,3.2-9.7,3.2c-9.2,0-17-7.5-17-16.7c0-9.4,7.7-17,17-17c3.6,0,6.8,1,9.7,3.2v4.4H420.3z"/>
	<path d="M424.7,254.3c0-6,4.7-10.8,10.7-10.8s10.7,4.8,10.7,10.8s-4.8,10.7-10.7,10.7C429.4,265,424.7,260.3,424.7,254.3
		 M428.1,254.3c0,4.1,2.9,7.5,7.2,7.5c4.3,0,7.2-3.4,7.2-7.5s-2.9-7.5-7.2-7.5C431.1,246.7,428.1,250.2,428.1,254.3"/>
	<path d="M454.3,246.3L454.3,246.3c1.2-1.7,2.9-2.8,5-2.8c2.4,0,4.5,1.3,5.6,3.4c1.2-2.3,3.6-3.4,6.1-3.4c5.2,0,6.5,4.2,6.5,8.5
		v12.4H474v-11.8c0-2.6-0.2-5.9-3.7-5.9c-4,0-4.4,3.8-4.4,6.9v10.8h-3.5v-11.5c0-2.5-0.3-6.1-3.6-6.1c-4.1,0-4.5,4.1-4.5,7.2v10.5
		h-3.5v-20.3h3.5V246.3z"/>
	<path d="M487.5,246.3L487.5,246.3c1.2-1.7,2.9-2.8,5-2.8c2.4,0,4.5,1.3,5.6,3.4c1.2-2.3,3.6-3.4,6.1-3.4c5.2,0,6.5,4.2,6.5,8.5
		v12.4h-3.5v-11.8c0-2.6-0.2-5.9-3.7-5.9c-4,0-4.4,3.8-4.4,6.9v10.8h-3.5v-11.5c0-2.5-0.3-6.1-3.6-6.1c-4.1,0-4.5,4.1-4.5,7.2v10.5
		H484v-20.3h3.5V246.3z"/>
	<path d="M519,255c0,3.8,2.7,6.8,6.7,6.8c2.9,0,4.9-1.8,6.2-4.2l2.9,1.7c-2,3.6-5.2,5.7-9.4,5.7c-6.1,0-10-4.6-10-10.5
		c0-6,3.5-11,9.9-11c6.5,0,10,5.4,9.7,11.5H519z M531.4,252.1c-0.5-2.9-2.9-5.3-6-5.3c-3,0-5.8,2.4-6.2,5.3H531.4z"/>
	<path d="M543,246.3L543,246.3c1.3-1.6,2.3-2.8,4.6-2.8c1.2,0,2.1,0.4,3.1,1l-1.6,3.2c-0.7-0.5-1.2-0.9-2.1-0.9c-3.8,0-4,4.9-4,7.5
		v10.2h-3.5v-20.3h3.5V246.3z"/>
	<path d="M569.4,250.2L569.4,250.2c-1.7-2-3.7-3.4-6.4-3.4c-4.2,0-7.2,3.5-7.2,7.5s2.8,7.5,7,7.5c2.9,0,4.9-1.3,6.6-3.5h0.1v4.6
		c-2,1.3-4,2.1-6.4,2.1c-6.1,0-10.8-4.6-10.8-10.7s4.9-10.7,10.9-10.7c2.2,0,4.5,0.7,6.3,2v4.6H569.4z"/>
</g>
<g>
	<path d="M576.6,255c0,3.8,2.7,6.8,6.7,6.8c2.9,0,4.8-1.8,6.2-4.2l2.9,1.7c-1.9,3.6-5.2,5.7-9.4,5.7c-6.1,0-10-4.6-10-10.5
		c0-6,3.5-11,9.9-11c6.5,0,10,5.4,9.6,11.5H576.6z M588.9,252.1c-0.5-2.9-2.9-5.3-6-5.3c-3,0-5.8,2.4-6.2,5.3H588.9z"/>
	<path d="M41.7,104.3H22.6V30.7c0,0.1,0-13.9,13.9-18.5c12.6-4,21,4.1,21,4.1l62.8,67.9c3.2,1.9,4.4-0.1,4.4-1.9V12.2H144v73.1
		c-0.1,6.2-5.2,13.9-12.5,16.9c-7.5,2.9-15.7,2.9-25.4-5.3L47.3,33c-1.5-1.7-5.6-1.8-5.6,1.4V104.3z"/>
</g>
<g>
	<path d="M156.4,12.1h19.2v66c-0.1,7,5.8,7,11.6,7.1h85.4c3.6,0,7.6-4.2,7.6-8.5c0-4.4-4.1-8.9-7.9-8.8h-55.6
		c-9.6,0.3-29.4-8.5-29.5-27.2c0.1-22.8,18.8-28,27.4-28.6h157.2v19.4h-39.4v72.7h-19.1V31.5h-96.4c-9.2-0.8-15.8,15-0.7,17.3h59.1
		c8.9-0.1,23.6,7.6,23.7,26.8c-0.1,19.4-11.5,28.6-23.7,28.6h-87.4c-14.4,0-19.6-3.3-24.7-8.1c-4.7-4.7-5.5-7.3-7.1-16.9V12.1H156.4
		z"/>
</g>
</svg>
